# xmcd
#
# Track frame offsets:
#	150
#	12700
#	33700
#	52376
#	80502
#	99104
#	121829
#	141179
#	155880
#	186180
#	212431
#	234857
#	257133
#	277158
#
# Disc length: 4006 seconds
#
# Revision: 1
# Processed by: cddbd v1.5.1PL0 Copyright (c) Steve Scherf et al.
# Submitted via: CDex 1.50Beta5
#
DISCID=cc0fa40e
DTITLE=Various Artist - Felicidade A Tribute to Joan Gilberto
DYEAR=1900
DGENRE=Latin
TTITLE0=Ann Sally/Voce e Eu
TTITLE1=宮沢 和史/P'Ra Machuacr Meu Coracao
TTITLE2=Dois Mapas/Adeus America
TTITLE3=AURORA/Dancarino de Estrela
TTITLE4=小野 リサ/Corcovado
TTITLE5=saigenji/Garota de Ipanema
TTITLE6=Nathalie Wise and 坂本 美雨/Valsa
TTITLE7=THE BOOM/街はいつも満席
TTITLE8=CHORO CLUB and 畠山美由紀/Besame Mucho
TTITLE9=naomi and goro/Izaura
TTITLE10=KAMA AINA/Ho-ba-la-la
TTITLE11=choro azul/Eu Sei Que Vou te Amar 〜Cordeiro de Nana
TTITLE12=中村 善郎/Estate
TTITLE13=So Alegria/Bim Bom 〜Minha Saudade
EXTD=
EXTT0=
EXTT1=
EXTT2=
EXTT3=
EXTT4=
EXTT5=
EXTT6=
EXTT7=
EXTT8=
EXTT9=
EXTT10=
EXTT11=
EXTT12=
EXTT13=
PLAYORDER=
